<?xml version="1.0" standalone="no"?>
<!DOCTYPE svg PUBLIC "-//W3C//DTD SVG 20010904//EN"
 "http://www.w3.org/TR/2001/REC-SVG-20010904/DTD/svg10.dtd">
<svg version="1.0" xmlns="http://www.w3.org/2000/svg"
 width="512.000000pt" height="512.000000pt" viewBox="0 0 512.000000 512.000000"
 preserveAspectRatio="xMidYMid meet">

<g transform="translate(0.000000,512.000000) scale(0.100000,-0.100000)"
fill="#000000" stroke="none">
<path d="M785 5106 c-16 -7 -50 -35 -75 -62 -94 -102 -416 -486 -432 -517 -11
-18 -18 -53 -18 -82 1 -105 77 -175 192 -175 l58 0 0 -339 0 -339 -157 -4
c-174 -5 -203 -12 -267 -68 -20 -18 -47 -52 -59 -74 l-22 -41 0 -1395 0 -1395
22 -40 c50 -93 137 -144 246 -145 l67 0 0 -98 c0 -119 17 -184 65 -239 95
-112 270 -117 373 -12 59 60 66 82 70 222 l4 127 1708 0 1708 0 4 -127 c4
-140 11 -162 70 -222 103 -105 278 -100 373 12 48 55 65 120 65 239 l0 98 61
0 c34 0 79 5 101 12 50 15 122 78 151 132 l22 41 0 1395 0 1395 -22 41 c-12
22 -39 56 -59 74 -64 56 -93 63 -266 68 l-158 4 0 339 0 339 58 0 c116 0 191
69 192 175 0 29 -7 64 -17 82 -17 30 -339 415 -433 517 -71 77 -135 94 -216
57 -31 -14 -90 -76 -265 -282 -123 -145 -232 -280 -241 -299 -36 -69 -18 -152
45 -207 37 -32 65 -41 147 -45 l45 -3 3 -337 2 -338 -1370 0 -1370 0 2 338 3
337 45 3 c82 4 110 13 147 45 63 55 81 138 45 207 -9 19 -118 154 -241 299
-237 278 -263 301 -341 300 -19 0 -48 -6 -65 -13z m293 -419 c106 -125 198
-227 203 -227 6 0 7 -4 4 -10 -3 -6 -50 -10 -105 -10 -90 0 -101 -2 -127 -24
l-28 -24 -3 -486 -3 -486 -169 0 -170 0 0 485 0 486 -25 24 c-22 23 -31 25
-125 25 -59 0 -100 4 -98 9 2 5 97 121 213 256 197 231 211 245 225 228 8 -10
102 -121 208 -246z m3402 13 c117 -137 217 -247 223 -243 6 3 7 1 3 -5 -5 -8
-44 -12 -112 -12 -98 0 -107 -2 -129 -25 l-25 -24 0 -486 0 -485 -170 0 -169
0 -3 486 -3 486 -28 24 c-26 22 -37 24 -128 24 -56 0 -99 4 -97 8 3 8 421 501
425 502 1 0 97 -112 213 -250z m-3966 -1312 c10 -48 50 -103 89 -121 29 -14
71 -17 255 -17 211 0 220 1 252 23 43 29 70 66 79 108 l7 34 1364 0 1364 0 7
-34 c9 -42 36 -79 79 -108 32 -22 41 -23 252 -23 184 0 226 3 255 17 39 18 78
71 88 121 l7 33 145 -3 c145 -3 145 -3 169 -31 l24 -28 0 -1350 0 -1351 -29
-29 -29 -29 -2332 0 -2332 0 -29 29 -29 29 0 1349 c0 1222 2 1351 16 1371 25
36 48 41 190 41 l132 1 6 -32z m166 -3061 c0 -95 -2 -105 -22 -124 -34 -31
-63 -36 -98 -18 -41 21 -50 49 -50 156 l0 89 85 0 85 0 0 -103z m3930 14 c0
-107 -9 -135 -50 -156 -35 -18 -64 -13 -97 18 -21 19 -23 29 -23 124 l0 103
85 0 85 0 0 -89z"/>
<path d="M452 3047 l-22 -23 0 -1102 c0 -1084 0 -1102 20 -1122 43 -43 110
-34 137 20 10 20 13 261 13 1103 0 1146 1 1123 -45 1141 -36 13 -82 6 -103
-17z"/>
<path d="M791 3044 c-21 -27 -21 -29 -21 -1123 1 -1160 -1 -1114 47 -1139 35
-19 63 -14 94 17 l29 30 -2 1101 -3 1102 -24 19 c-36 29 -94 25 -120 -7z"/>
<path d="M1135 3045 l-25 -24 0 -1096 0 -1097 29 -29 c38 -38 74 -38 112 0
l29 29 0 1097 0 1096 -25 24 c-33 34 -87 34 -120 0z"/>
<path d="M1475 3045 l-25 -24 0 -1096 0 -1097 29 -29 c36 -36 70 -37 110 -3
l31 26 0 1098 c0 1095 0 1097 -21 1124 -28 36 -89 37 -124 1z"/>
<path d="M1832 3063 c-7 -3 -19 -18 -27 -33 -13 -25 -15 -175 -15 -1107 0
-842 3 -1083 13 -1103 27 -54 94 -63 137 -20 20 20 20 38 20 1119 0 1096 0
1098 -21 1125 -16 20 -29 26 -57 25 -20 0 -43 -3 -50 -6z"/>
<path d="M2172 3063 c-7 -3 -19 -18 -27 -33 -13 -25 -15 -175 -15 -1107 0
-842 3 -1083 13 -1103 27 -54 94 -63 137 -20 20 20 20 38 20 1123 l0 1104 -23
21 c-22 21 -73 28 -105 15z"/>
<path d="M2499 3044 l-24 -26 -3 -1081 c-2 -1016 -1 -1084 15 -1117 21 -41 63
-57 106 -41 60 23 58 -22 55 1160 l-3 1079 -24 26 c-34 36 -88 36 -122 0z"/>
<path d="M2842 3047 l-22 -23 0 -1102 c0 -1084 0 -1102 20 -1122 43 -43 110
-34 137 20 17 34 19 2150 2 2199 -13 37 -35 51 -82 51 -22 0 -41 -8 -55 -23z"/>
<path d="M3181 3044 c-21 -27 -21 -29 -21 -1125 0 -1081 0 -1099 20 -1119 43
-43 110 -34 137 20 10 20 13 261 13 1103 0 1146 1 1123 -45 1141 -39 15 -83 6
-104 -20z"/>
<path d="M3521 3044 c-21 -27 -21 -29 -21 -1124 l0 -1098 31 -26 c40 -34 74
-33 110 3 l29 29 0 1097 0 1096 -25 24 c-35 36 -96 35 -124 -1z"/>
<path d="M3865 3045 l-25 -24 0 -1096 0 -1097 29 -29 c38 -38 74 -38 112 0
l29 29 0 1097 0 1096 -25 24 c-33 34 -87 34 -120 0z"/>
<path d="M4209 3051 l-24 -19 -3 -1102 -2 -1101 29 -30 c31 -31 59 -36 94 -17
48 25 46 -21 47 1139 0 1094 0 1096 -21 1123 -26 32 -84 36 -120 7z"/>
<path d="M4562 3063 c-7 -3 -19 -18 -27 -33 -13 -25 -15 -175 -15 -1107 0
-842 3 -1083 13 -1103 27 -54 94 -63 137 -20 20 20 20 38 20 1123 l0 1104 -23
21 c-22 21 -73 28 -105 15z"/>
<path d="M1813 4918 c-18 -18 -47 -64 -65 -103 -32 -68 -33 -73 -33 -205 0
-153 9 -183 97 -312 85 -123 90 -264 13 -379 -39 -60 -42 -90 -10 -127 32 -38
78 -43 118 -12 35 28 95 151 108 225 15 78 5 198 -20 266 -12 30 -43 87 -71
128 -58 85 -70 122 -70 211 0 81 11 123 50 183 39 61 40 108 4 136 -40 32 -84
27 -121 -11z"/>
<path d="M2501 4925 c-38 -33 -86 -128 -102 -203 -6 -33 -9 -95 -6 -147 5
-102 29 -173 82 -247 57 -79 78 -128 83 -200 6 -82 -10 -148 -50 -211 -39 -60
-40 -103 -3 -134 57 -49 122 -16 174 88 41 82 54 156 48 264 -5 102 -29 173
-82 247 -57 79 -78 128 -83 200 -6 83 10 148 50 211 38 59 40 98 8 132 -31 33
-79 33 -119 0z"/>
<path d="M3187 4930 c-15 -12 -43 -54 -63 -95 -88 -178 -66 -373 60 -548 43
-59 56 -102 56 -187 0 -81 -11 -123 -50 -183 -37 -58 -39 -99 -5 -132 58 -59
126 -18 187 110 32 68 33 73 33 205 0 153 -9 183 -97 312 -92 133 -89 266 9
419 32 50 -9 119 -71 119 -18 0 -45 -9 -59 -20z"/>
</g>
</svg>
