<?xml version="1.0" standalone="no"?>
<!DOCTYPE svg PUBLIC "-//W3C//DTD SVG 20010904//EN"
 "http://www.w3.org/TR/2001/REC-SVG-20010904/DTD/svg10.dtd">
<svg version="1.0" xmlns="http://www.w3.org/2000/svg"
 width="512.000000pt" height="512.000000pt" viewBox="0 0 512.000000 512.000000"
 preserveAspectRatio="xMidYMid meet">

<g transform="translate(0.000000,512.000000) scale(0.100000,-0.100000)"
fill="#000000" stroke="none">
<path d="M142 4664 c-29 -14 -65 -42 -82 -62 -62 -75 -60 -47 -60 -929 l0
-804 25 -24 c16 -17 35 -25 60 -25 25 0 44 8 60 25 l25 24 0 791 c0 839 0 836
45 854 9 3 61 6 115 6 l99 0 3 -387 c3 -379 3 -389 26 -434 34 -70 84 -122
154 -160 l63 -34 1885 0 1885 0 50 25 c64 31 134 101 165 165 l25 50 3 388 3
387 99 0 c115 0 126 -3 145 -41 23 -43 22 -1847 0 -1934 -34 -129 -113 -225
-235 -284 l-75 -36 -176 -3 -176 -4 -5 124 c-4 106 -9 132 -30 180 -35 75 -98
141 -167 175 l-56 28 -536 3 -536 3 -26 -27 c-15 -15 -27 -37 -27 -50 0 -31
19 -71 39 -81 9 -4 250 -10 537 -13 l521 -5 36 -28 c58 -44 71 -77 75 -199 l4
-107 -501 -3 -500 -3 -23 -22 c-33 -33 -30 -89 6 -120 l28 -24 766 3 767 3 65
23 c183 66 308 193 383 389 l22 58 3 974 c3 1072 5 1026 -58 1103 -17 20 -53
48 -82 62 l-52 26 -2366 0 -2366 0 -52 -26z m4378 -506 c0 -357 -1 -364 -23
-403 -14 -26 -37 -48 -67 -62 l-44 -23 -1826 0 c-1758 0 -1827 1 -1866 19 -23
10 -52 34 -65 52 l-24 34 -3 373 -3 372 1961 0 1960 0 0 -362z"/>
<path d="M795 4325 c-42 -41 -31 -105 22 -133 31 -17 3455 -17 3486 0 53 28
64 92 22 133 l-24 25 -1741 0 -1741 0 -24 -25z"/>
<path d="M795 3985 c-41 -40 -33 -105 16 -130 42 -22 3456 -22 3498 0 49 25
57 90 16 130 l-24 25 -1741 0 -1741 0 -24 -25z"/>
<path d="M1325 3323 c-91 -8 -220 -35 -312 -64 -227 -72 -409 -184 -584 -358
-212 -212 -336 -440 -401 -739 -31 -142 -31 -424 0 -569 86 -400 308 -720 652
-942 336 -217 780 -280 1175 -166 450 130 821 485 970 928 56 167 69 256 69
462 0 159 -4 207 -22 292 -60 276 -182 508 -372 707 -109 114 -209 192 -334
264 -247 142 -560 211 -841 185z m362 -188 c510 -97 907 -489 1019 -1005 26
-118 26 -381 1 -500 -113 -531 -526 -930 -1050 -1015 -689 -112 -1345 355
-1468 1045 -22 124 -18 356 10 480 119 544 556 941 1111 1010 95 11 275 4 377
-15z"/>
<path d="M1395 2885 c-24 -23 -25 -28 -25 -175 0 -82 -3 -150 -7 -150 -4 0
-59 52 -123 115 -104 102 -121 115 -152 115 -47 0 -78 -34 -78 -85 0 -37 9
-48 180 -220 l180 -181 0 -157 c0 -86 -3 -157 -7 -157 -5 0 -75 22 -157 49
l-149 48 -113 219 c-62 120 -121 224 -130 231 -48 35 -134 -5 -134 -62 0 -14
32 -88 70 -165 39 -77 65 -140 60 -140 -6 0 -66 18 -134 40 -149 49 -166 49
-200 9 -62 -74 -21 -119 156 -174 71 -22 128 -43 128 -47 0 -4 -63 -39 -140
-78 -77 -39 -144 -79 -150 -90 -16 -31 -12 -67 13 -94 44 -50 57 -47 293 73
120 61 223 111 229 111 11 0 298 -90 303 -95 4 -4 -176 -253 -188 -260 -5 -3
-119 -23 -252 -45 -226 -36 -244 -40 -265 -65 -26 -29 -29 -55 -11 -88 28 -54
47 -56 230 -26 71 11 133 19 139 17 6 -2 -27 -55 -72 -117 -66 -91 -83 -122
-83 -149 0 -69 89 -108 137 -60 12 13 56 69 96 125 41 57 76 102 77 100 2 -2
14 -72 28 -156 28 -175 42 -201 106 -201 48 0 80 33 80 82 0 20 -16 135 -35
257 l-36 222 93 129 c51 71 95 129 98 129 3 1 47 -58 98 -129 l94 -131 -36
-227 c-20 -125 -36 -239 -36 -253 0 -42 36 -79 76 -79 75 0 84 17 115 215 11
77 22 141 24 143 1 2 39 -49 85 -111 104 -145 143 -166 201 -108 49 49 44 63
-67 214 -41 56 -72 103 -69 105 2 2 71 -6 152 -19 82 -12 161 -19 176 -16 28
8 57 51 57 85 0 26 -35 69 -62 75 -19 5 -464 77 -474 77 -1 0 -46 60 -99 132
l-97 133 149 47 c81 26 154 48 160 48 7 0 109 -49 226 -110 118 -60 225 -110
240 -110 42 0 79 39 79 83 0 21 -5 44 -12 52 -7 8 -75 47 -151 87 -76 40 -135
75 -131 79 4 4 64 25 134 49 159 52 189 82 157 153 -12 26 -47 47 -77 47 -10
0 -77 -20 -150 -44 -73 -25 -132 -43 -132 -40 0 2 32 67 70 144 39 77 70 151
70 165 0 58 -86 97 -134 62 -10 -7 -68 -112 -130 -232 l-111 -220 -145 -47
c-80 -25 -148 -47 -152 -47 -5 -1 -8 72 -8 161 l0 162 175 176 c155 156 175
180 175 209 0 23 -9 41 -29 62 -52 51 -70 43 -202 -87 l-118 -116 -3 152 -3
152 -28 24 c-37 31 -81 31 -112 -1z"/>
<path d="M4212 3050 c-46 -43 -37 -107 19 -139 51 -29 119 14 119 76 0 70 -87
110 -138 63z"/>
<path d="M4545 3038 c-32 -38 -29 -81 11 -115 29 -27 54 -29 93 -8 75 38 43
155 -43 155 -26 0 -40 -7 -61 -32z"/>
<path d="M3295 1870 c-32 -12 -44 -33 -55 -90 -5 -29 -10 -55 -10 -57 0 -2
-22 -28 -50 -57 -72 -76 -104 -152 -104 -246 0 -93 29 -162 98 -233 53 -55 66
-81 66 -138 0 -49 -17 -84 -65 -129 -63 -60 -116 -194 -101 -255 16 -64 96
-86 141 -40 14 13 25 36 25 50 0 42 27 94 79 151 69 75 94 146 89 245 -5 92
-29 145 -98 219 -90 97 -89 165 5 271 62 69 95 146 95 217 -1 50 -12 72 -47
90 -25 14 -40 14 -68 2z"/>
<path d="M3894 1870 c-30 -12 -54 -49 -54 -83 0 -39 -25 -83 -77 -140 -67 -73
-88 -125 -88 -227 1 -102 21 -153 96 -234 95 -104 93 -170 -8 -279 -55 -59
-84 -122 -90 -198 -5 -52 -3 -60 20 -83 48 -47 129 -28 141 34 3 17 9 44 12
61 3 17 28 55 55 85 27 29 61 77 76 106 24 46 28 65 28 138 0 102 -21 155 -88
227 -100 108 -103 177 -12 274 57 61 94 136 101 207 6 52 4 61 -17 85 -27 30
-64 40 -95 27z"/>
<path d="M4405 1870 c-32 -12 -44 -33 -55 -90 -5 -29 -10 -54 -10 -56 0 -2
-27 -33 -60 -70 -49 -54 -64 -79 -81 -136 -36 -117 -8 -235 76 -323 54 -57 75
-95 75 -137 0 -55 -15 -85 -75 -150 -42 -45 -59 -73 -75 -124 -29 -95 -24
-138 19 -171 46 -35 131 5 131 62 0 42 27 94 79 151 69 75 94 146 89 244 -6
89 -33 150 -102 224 -87 92 -85 162 9 267 62 69 95 146 95 218 0 43 -4 53 -31
75 -32 27 -50 30 -84 16z"/>
</g>
</svg>
