<?xml version="1.0" standalone="no"?>
<!DOCTYPE svg PUBLIC "-//W3C//DTD SVG 20010904//EN"
 "http://www.w3.org/TR/2001/REC-SVG-20010904/DTD/svg10.dtd">
<svg version="1.0" xmlns="http://www.w3.org/2000/svg"
 width="512.000000pt" height="512.000000pt" viewBox="0 0 512.000000 512.000000"
 preserveAspectRatio="xMidYMid meet">

<g transform="translate(0.000000,512.000000) scale(0.100000,-0.100000)"
fill="#000000" stroke="none">
<path d="M2067 5106 c-27 -21 -37 -70 -37 -183 l0 -103 -358 0 c-394 0 -422
-3 -514 -62 -95 -60 -153 -153 -168 -271 -13 -98 -13 -3481 0 -3526 23 -82
117 -82 140 0 6 19 10 148 10 286 l0 253 1420 0 1420 0 0 -675 0 -675 -1420 0
-1420 0 0 253 c0 138 -4 267 -10 286 -23 82 -117 82 -140 0 -6 -19 -10 -160
-10 -314 0 -154 4 -295 10 -314 18 -65 -101 -60 1570 -60 1671 0 1552 -5 1570
60 15 53 12 3474 -3 3519 -14 41 -52 59 -94 44 -19 -6 -32 -21 -40 -44 -9 -26
-12 -276 -12 -982 l-1 -948 -1420 0 -1420 0 2 1439 3 1439 30 43 c19 27 50 54
84 71 l53 28 1248 0 1248 0 53 -28 c34 -17 65 -44 84 -71 l30 -43 5 -350 5
-350 28 -24 c35 -30 59 -30 94 0 l28 24 0 339 c0 298 -2 344 -18 389 -42 121
-129 208 -244 244 -60 18 -92 20 -424 20 l-359 0 0 103 c0 113 -10 162 -37
183 -26 20 -960 20 -986 0z m863 -211 l0 -75 -370 0 -370 0 0 75 0 75 370 0
370 0 0 -75z"/>
<path d="M2519 4507 c-21 -16 -368 -469 -408 -532 -64 -102 -90 -267 -60 -395
45 -195 226 -360 432 -392 260 -40 528 139 586 392 26 112 8 266 -41 365 -24
47 -344 469 -404 532 -42 45 -74 54 -105 30z m200 -390 c203 -267 206 -274
206 -407 0 -93 -3 -111 -27 -162 -69 -148 -241 -240 -396 -211 -125 24 -229
101 -280 211 -24 51 -27 69 -27 162 0 94 3 110 26 155 25 47 329 454 339 454
3 0 74 -91 159 -202z"/>
<path d="M2482 3917 c-51 -19 -98 -62 -122 -112 -32 -67 -26 -166 15 -224 44
-64 105 -96 185 -96 123 0 211 81 218 200 5 82 -11 128 -62 179 -61 61 -153
82 -234 53z m128 -157 c30 -30 27 -83 -6 -109 -15 -12 -34 -21 -44 -21 -10 0
-29 9 -44 21 -52 41 -23 129 44 129 17 0 39 -9 50 -20z"/>
<path d="M1917 1336 c-10 -8 -22 -29 -27 -47 -13 -45 -13 -883 0 -928 18 -63
-15 -60 670 -60 685 0 652 -3 670 60 13 45 13 883 0 928 -18 63 15 60 -670 60
-511 0 -628 -2 -643 -13z m1163 -361 l0 -225 -520 0 -520 0 0 225 0 225 520 0
520 0 0 -225z m0 -450 l0 -75 -520 0 -520 0 0 75 0 75 520 0 520 0 0 -75z"/>
<path d="M1409 1022 c-34 -17 -65 -44 -84 -71 -28 -39 -30 -50 -30 -126 0 -76
2 -87 30 -126 39 -56 120 -99 184 -99 67 0 147 43 186 98 27 40 30 51 30 127
0 76 -3 87 -30 127 -20 28 -49 52 -84 71 -73 36 -131 36 -202 -1z m149 -142
c47 -44 15 -130 -48 -130 -38 0 -70 34 -70 75 0 41 32 75 70 75 14 0 36 -9 48
-20z"/>
<path d="M3509 1022 c-34 -17 -65 -44 -84 -71 -28 -39 -30 -50 -30 -126 0 -76
2 -87 30 -126 39 -56 120 -99 184 -99 67 0 147 43 186 98 27 40 30 51 30 127
0 76 -3 87 -30 127 -20 28 -49 52 -84 71 -73 36 -131 36 -202 -1z m149 -142
c47 -44 15 -130 -48 -130 -38 0 -70 34 -70 75 0 41 32 75 70 75 14 0 36 -9 48
-20z"/>
</g>
</svg>
