<?xml version="1.0" standalone="no"?>
<!DOCTYPE svg PUBLIC "-//W3C//DTD SVG 20010904//EN"
 "http://www.w3.org/TR/2001/REC-SVG-20010904/DTD/svg10.dtd">
<svg version="1.0" xmlns="http://www.w3.org/2000/svg"
 width="512.000000pt" height="512.000000pt" viewBox="0 0 512.000000 512.000000"
 preserveAspectRatio="xMidYMid meet">

<g transform="translate(0.000000,512.000000) scale(0.100000,-0.100000)"
fill="#000000" stroke="none">
<path d="M2511 4946 c-28 -15 -50 -52 -51 -82 0 -12 12 -48 26 -80 19 -41 28
-82 31 -134 l5 -75 -46 -61 c-60 -80 -77 -131 -77 -226 -1 -125 60 -291 116
-316 51 -24 112 -4 133 43 17 38 15 55 -14 121 -19 41 -28 82 -31 134 l-5 75
46 61 c60 80 76 128 76 228 0 91 -17 161 -60 247 -38 74 -91 97 -149 65z"/>
<path d="M2959 4931 c-37 -37 -38 -75 -4 -156 48 -119 45 -189 -12 -257 -51
-61 -74 -118 -80 -201 -8 -119 49 -299 109 -341 36 -26 85 -20 119 13 37 37
38 76 4 158 -49 121 -46 187 12 255 51 61 74 118 80 201 8 119 -49 299 -109
341 -36 26 -85 20 -119 -13z"/>
<path d="M3441 4946 c-28 -15 -50 -52 -51 -82 0 -12 11 -46 24 -77 30 -67 44
-140 36 -187 -3 -20 -25 -61 -48 -91 -56 -74 -72 -124 -72 -223 0 -171 76
-326 161 -326 34 0 76 28 89 59 14 35 12 50 -24 144 -17 45 -26 88 -26 127 0
53 4 63 42 111 58 74 80 136 80 231 0 86 -20 164 -62 248 -38 75 -90 98 -149
66z"/>
<path d="M3914 4950 c-31 -12 -54 -49 -54 -85 0 -16 11 -57 25 -90 48 -119 45
-189 -12 -257 -99 -119 -108 -278 -26 -460 14 -33 37 -68 51 -79 50 -39 128
-13 150 49 8 22 5 41 -10 83 -67 182 -65 208 20 320 79 104 82 279 5 436 -41
84 -86 109 -149 83z"/>
<path d="M1466 3750 c-63 -16 -153 -70 -197 -117 -22 -24 -55 -74 -72 -111
-30 -64 -32 -74 -35 -214 l-4 -148 -210 0 c-227 0 -253 -5 -276 -55 -16 -34
-15 -60 2 -94 24 -46 50 -51 276 -51 l210 0 0 -100 0 -100 -210 0 c-229 0
-255 -5 -278 -55 -15 -33 -15 -57 0 -90 23 -50 49 -55 278 -55 l210 0 0 -450
0 -450 -210 0 c-141 0 -218 -4 -235 -12 -44 -20 -55 -55 -55 -178 l0 -110
-210 0 c-226 0 -252 -5 -276 -51 -20 -40 -20 -458 0 -498 24 -46 50 -51 276
-51 l210 0 0 -60 c0 -70 17 -111 55 -128 17 -8 94 -12 234 -12 l209 0 7 -55
c9 -75 65 -183 121 -235 25 -23 75 -56 112 -73 61 -29 76 -32 162 -32 86 0
102 3 160 31 36 17 83 46 103 64 l37 32 37 -32 c20 -18 67 -47 103 -64 58 -28
74 -31 160 -31 86 0 102 3 160 31 36 17 83 46 103 64 l37 32 37 -32 c20 -18
67 -47 103 -64 58 -28 74 -31 160 -31 86 0 102 3 160 31 36 17 83 46 103 64
l37 32 37 -32 c20 -18 67 -47 103 -64 58 -28 74 -31 160 -31 86 0 102 3 160
31 36 17 83 46 103 64 l37 32 37 -32 c20 -18 67 -47 103 -64 58 -28 74 -31
160 -31 86 0 102 3 160 31 36 17 83 46 103 64 l37 32 37 -32 c20 -18 67 -47
103 -64 59 -28 74 -31 161 -31 90 0 99 2 171 37 91 45 147 103 191 196 l32 67
0 1495 0 1495 -32 67 c-44 93 -100 151 -191 196 -72 35 -81 37 -171 37 -87 0
-102 -3 -161 -31 -36 -17 -83 -46 -103 -64 l-37 -32 -37 32 c-20 18 -67 47
-103 64 -58 28 -74 31 -160 31 -86 0 -102 -3 -160 -31 -36 -17 -83 -46 -103
-64 l-37 -32 -37 32 c-20 18 -67 47 -103 64 -58 28 -74 31 -160 31 -86 0 -102
-3 -160 -31 -36 -17 -83 -46 -103 -64 l-37 -32 -37 32 c-20 18 -67 47 -103 64
-58 28 -74 31 -160 31 -86 0 -102 -3 -160 -31 -36 -17 -83 -46 -103 -64 l-37
-32 -37 32 c-20 18 -67 47 -103 64 -58 28 -74 31 -160 31 -86 0 -102 -3 -160
-31 -36 -17 -83 -46 -103 -64 l-37 -32 -37 32 c-64 56 -152 91 -241 96 -42 2
-94 -1 -116 -6z m204 -224 c21 -13 48 -42 61 -63 l24 -38 0 -1465 0 -1465 -24
-38 c-13 -21 -42 -50 -64 -65 -34 -23 -52 -27 -107 -27 -55 0 -73 4 -107 27
-22 15 -51 44 -64 65 l-24 38 -3 1443 c-1 999 1 1456 8 1483 13 48 76 114 122
128 53 16 135 6 178 -23z m600 0 c21 -13 48 -42 61 -63 l24 -38 0 -1465 0
-1465 -24 -38 c-13 -21 -42 -50 -64 -65 -34 -23 -52 -27 -107 -27 -55 0 -73 4
-107 27 -22 15 -51 44 -64 65 l-24 38 -3 1443 c-1 999 1 1456 8 1483 13 48 76
114 122 128 53 16 135 6 178 -23z m600 0 c21 -13 48 -42 61 -63 l24 -38 0
-1465 0 -1465 -24 -38 c-13 -21 -42 -50 -64 -65 -34 -23 -52 -27 -107 -27 -55
0 -73 4 -107 27 -22 15 -51 44 -64 65 l-24 38 -3 1443 c-1 999 1 1456 8 1483
13 48 76 114 122 128 53 16 135 6 178 -23z m600 0 c21 -13 48 -42 61 -63 l24
-38 0 -1465 0 -1465 -24 -38 c-13 -21 -42 -50 -64 -65 -34 -23 -52 -27 -107
-27 -55 0 -73 4 -107 27 -22 15 -51 44 -64 65 l-24 38 -3 1443 c-1 999 1 1456
8 1483 13 48 76 114 122 128 53 16 135 6 178 -23z m600 0 c21 -13 48 -42 61
-63 l24 -38 0 -1465 0 -1465 -24 -38 c-13 -21 -42 -50 -64 -65 -34 -23 -52
-27 -107 -27 -55 0 -73 4 -107 27 -22 15 -51 44 -64 65 l-24 38 -3 1443 c-1
999 1 1456 8 1483 13 48 76 114 122 128 53 16 135 6 178 -23z m600 0 c21 -13
48 -42 61 -63 l24 -38 0 -1465 0 -1465 -24 -38 c-13 -21 -42 -50 -64 -65 -34
-23 -52 -27 -107 -27 -55 0 -73 4 -107 27 -22 15 -51 44 -64 65 l-24 38 -3
1443 c-1 999 1 1456 8 1483 13 48 76 114 122 128 53 16 135 6 178 -23z m-3510
-2416 l0 -350 -150 0 -150 0 0 350 0 350 150 0 150 0 0 -350z m-500 -50 l0
-100 -150 0 -150 0 0 100 0 100 150 0 150 0 0 -100z"/>
</g>
</svg>
