<?xml version="1.0" standalone="no"?>
<!DOCTYPE svg PUBLIC "-//W3C//DTD SVG 20010904//EN"
 "http://www.w3.org/TR/2001/REC-SVG-20010904/DTD/svg10.dtd">
<svg version="1.0" xmlns="http://www.w3.org/2000/svg"
 width="512.000000pt" height="512.000000pt" viewBox="0 0 512.000000 512.000000"
 preserveAspectRatio="xMidYMid meet">

<g transform="translate(0.000000,512.000000) scale(0.100000,-0.100000)"
fill="#000000" stroke="none">
<path d="M830 4980 l0 -110 60 0 61 0 -3 108 -3 107 -57 3 -58 3 0 -111z"/>
<path d="M2352 4933 c-11 -10 -457 -877 -992 -1928 -535 -1050 -1007 -1976
-1048 -2057 -65 -125 -75 -150 -67 -171 6 -14 69 -81 142 -151 l132 -126 1299
0 c1023 0 1302 3 1314 13 13 9 424 804 899 1737 l53 105 7 -70 c8 -89 43 -159
104 -212 l45 -41 0 -811 0 -811 -1782 0 c-1705 0 -1785 -1 -1823 -19 -97 -44
-137 -121 -133 -251 3 -79 5 -85 28 -97 20 -10 430 -12 2037 -10 1917 2 2013
3 2030 20 17 17 18 73 21 1009 l2 991 36 40 c20 22 46 60 58 86 21 45 21 57
26 756 l5 710 188 364 187 365 0 268 c0 255 -1 269 -20 288 -20 20 -33 20
-1374 20 -1275 0 -1355 -1 -1374 -17z m606 -107 c-2 -7 -95 -194 -208 -415
l-205 -401 -267 0 c-148 0 -268 3 -268 6 0 9 400 796 413 812 15 19 540 18
535 -2z m692 9 c0 -15 -414 -817 -424 -821 -6 -2 -131 -3 -278 -2 l-267 3 210
413 210 412 275 0 c151 0 274 -2 274 -5z m690 -6 c0 -6 -93 -192 -206 -415
l-206 -404 -279 0 c-153 0 -279 2 -279 5 0 7 341 678 387 763 l34 62 274 0
c189 0 275 -3 275 -11z m618 1 c-1 -5 -95 -192 -208 -415 l-205 -405 -243 0
-244 0 70 133 c38 72 134 259 213 415 l143 282 239 0 c154 0 237 -4 235 -10z
m-335 -1167 c-208 -406 -643 -1257 -968 -1891 l-590 -1152 -1250 1 -1250 0
-59 54 -59 55 1261 0 c872 0 1268 3 1284 11 18 8 254 463 1013 1954 l990 1943
3 -118 3 -118 -378 -739z m-2143 222 c0 -3 -107 -214 -237 -470 l-238 -465
-267 0 c-148 0 -268 3 -268 6 0 3 106 215 236 470 l235 464 270 0 c148 0 269
-2 269 -5z m453 -465 l-238 -470 -278 0 -278 0 238 470 238 470 278 0 278 0
-238 -470z m927 464 c0 -4 -106 -215 -236 -470 l-235 -464 -280 0 c-153 0
-279 2 -279 5 0 3 107 215 237 470 l238 465 277 0 c153 0 278 -3 278 -6z m389
-451 c-128 -252 -236 -464 -242 -470 -7 -10 -69 -13 -248 -13 l-239 0 104 203
c57 111 165 322 240 470 l137 267 240 0 240 0 -232 -457z m356 -1200 c-29 -76
-114 -133 -201 -133 -55 0 -136 49 -168 103 -29 47 -30 52 -34 210 l-4 162
208 407 209 407 3 -557 c2 -488 1 -562 -13 -599z m-2666 590 c0 -5 -93 -190
-207 -413 l-208 -405 -273 -3 -273 -2 140 272 c77 150 172 337 211 416 l71
142 270 0 c149 0 270 -3 269 -7z m482 -405 l-210 -413 -275 -3 c-152 -1 -276
0 -276 3 0 7 387 771 407 803 13 22 14 22 289 22 l275 0 -210 -412z m899 405
c0 -3 -93 -190 -207 -414 l-208 -409 -278 0 c-232 0 -278 2 -275 14 2 8 95
194 208 415 l205 401 277 0 c153 0 278 -3 278 -7z m411 -405 l-210 -413 -241
-3 c-133 -1 -240 1 -238 5 11 24 197 391 300 591 l120 232 239 0 240 0 -210
-412z m769 -1218 l0 -790 -70 0 -70 0 0 790 0 790 70 0 70 0 0 -790z m-3195
373 c-87 -170 -205 -401 -264 -515 l-106 -208 -267 0 c-148 0 -268 3 -268 6 0
7 372 740 462 912 l59 112 270 0 270 0 -156 -307z m585 -198 c-141 -278 -261
-510 -266 -515 -7 -7 -111 -9 -282 -8 l-271 3 261 513 262 512 276 0 277 0
-257 -505z m950 502 c0 -2 -117 -232 -259 -513 l-260 -509 -280 -3 c-155 -1
-281 0 -281 3 0 2 101 202 224 442 123 241 240 471 260 511 l36 72 280 0 c154
0 280 -1 280 -3z m610 -3 c0 -4 -116 -236 -257 -515 l-258 -509 -238 0 c-196
0 -238 2 -235 14 2 7 118 239 258 514 l255 502 238 0 c130 0 237 -3 237 -6z
m1050 -1654 l0 -70 -1946 0 -1946 0 7 37 c8 44 26 73 57 90 18 10 419 12 1926
13 l1902 0 0 -70z"/>
<path d="M255 4820 l-39 -40 77 -78 77 -77 42 43 43 42 -75 75 c-41 41 -77 75
-80 75 -3 0 -24 -18 -45 -40z"/>
<path d="M1400 4785 l-75 -75 43 -42 42 -43 77 77 77 78 -39 40 c-21 22 -42
40 -45 40 -3 0 -39 -34 -80 -75z"/>
<path d="M785 4655 c-159 -35 -284 -134 -356 -280 -66 -136 -73 -279 -19 -415
93 -235 344 -371 592 -319 189 39 358 208 397 397 49 233 -68 474 -279 575
-117 56 -217 68 -335 42z m210 -120 c111 -29 213 -116 263 -223 24 -50 27 -69
27 -162 0 -97 -2 -110 -31 -170 -39 -83 -111 -155 -194 -194 -60 -29 -73 -31
-170 -31 -95 0 -111 3 -162 28 -165 81 -261 260 -230 429 29 156 122 264 271
315 78 27 145 29 226 8z"/>
<path d="M0 4195 l0 -55 110 0 110 0 0 55 0 55 -110 0 -110 0 0 -55z"/>
<path d="M1560 4195 l0 -55 110 0 110 0 0 55 0 55 -110 0 -110 0 0 -55z"/>
<path d="M297 3682 l-77 -78 38 -37 c21 -20 42 -37 48 -37 13 0 144 133 144
146 0 5 -17 27 -38 47 l-38 37 -77 -78z"/>
<path d="M1368 3716 l-37 -43 47 -44 c26 -24 62 -57 79 -73 l33 -30 26 25 c54
50 53 55 -27 135 -41 41 -76 74 -79 74 -3 0 -22 -20 -42 -44z"/>
<path d="M840 3410 l0 -110 60 0 60 0 0 110 0 110 -60 0 -60 0 0 -110z"/>
</g>
</svg>
